<svg xmlns:xlink="http://www.w3.org/1999/xlink" xmlns="http://www.w3.org/2000/svg" width="38" height="30" viewBox="0 0 38 30" fill="none">
<g clip-path="url(#clip0_1042_88)">
<path d="M35.3965 30V28.4948C35.3965 24.7587 32.9266 21.7206 29.8916 21.7206H20.9297C17.8929 21.7206 15.4231 24.7587 15.4231 28.4948V30H13.6038V28.4948C13.6038 23.5534 16.89 19.5341 20.9297 19.5341H29.8916C33.9313 19.5341 37.2175 23.5534 37.2175 28.4948V30H35.3982H35.3965Z" fill="white"/>
<path d="M25.4089 16.42C21.1442 16.42 17.6749 12.7376 17.6749 8.20908C17.6749 3.68057 21.1442 0 25.4089 0C29.6736 0 33.1447 3.68242 33.1447 8.21094C33.1447 12.7394 29.6754 16.4219 25.4089 16.4219V16.42ZM25.4089 2.1865C22.2797 2.1865 19.7349 4.88768 19.7349 8.20908C19.7349 11.5305 22.2797 14.2335 25.4089 14.2335C28.5381 14.2335 31.0847 11.5305 31.0847 8.20908C31.0847 4.88768 28.5381 2.1865 25.4089 2.1865Z" fill="white"/>
<path d="M7.32976 20.6819C6.76986 20.6819 6.31287 20.1969 6.31287 19.6026V14.4686H1.47606C0.916161 14.4686 0.459167 13.9836 0.459167 13.3893C0.459167 12.7654 0.916161 12.2803 1.47606 12.2803H6.31287V7.14638C6.31287 6.55208 6.76986 6.06702 7.32976 6.06702C7.91757 6.06702 8.37457 6.55208 8.37457 7.14638V12.2803H13.2114C13.7713 12.2803 14.2283 12.7654 14.2283 13.3597C14.2283 13.9836 13.7713 14.4686 13.2114 14.4686H8.37457V19.6026C8.37457 20.1969 7.91757 20.6819 7.35767 20.6819H7.32976Z" fill="white"/>
</g>
<defs>
<clipPath id="clip0_1042_88">
<rect width="36.7565" height="30" fill="white" transform="translate(0.459167)"/>
</clipPath>
</defs>
</svg>