<svg xmlns:xlink="http://www.w3.org/1999/xlink" xmlns="http://www.w3.org/2000/svg" width="40" height="40" viewBox="0 0 40 40" fill="none">
<path d="M11.0216 40C4.94421 40 0 35.0536 0 28.9766V11.0209C0 4.9439 4.94421 0 11.0216 0H28.9784C35.0558 0 40 4.9439 40 11.0209V28.9766C40 35.0536 35.0558 40 28.9784 40H11.0216ZM20 2.54881C10.7191 2.54881 7.59484 2.54881 4.91693 5.29598C4.4359 5.77698 2.84404 7.62412 2.68287 11.0506C2.55145 13.892 2.47954 18.7839 2.51426 20.0112C2.47954 21.2112 2.54897 26.103 2.68287 28.9444C2.84404 32.3709 4.4359 34.2205 4.92189 34.704C7.59236 37.4462 10.7191 37.4462 20 37.4462C29.2809 37.4462 32.4052 37.4462 35.0831 34.6991C35.5641 34.2205 37.156 32.3759 37.3171 28.9444C37.451 26.1129 37.5229 21.2186 37.4857 19.9839C37.5205 18.7764 37.451 13.8821 37.3171 11.0531C37.156 7.62165 35.5641 5.77698 35.0781 5.2935C32.4076 2.55129 29.2809 2.55129 20 2.55129V2.54881ZM20 30.0775C14.4433 30.0775 9.92065 25.5551 9.92065 19.9988C9.92065 14.4424 14.4433 9.92004 20 9.92004C25.5567 9.92004 30.0793 14.4424 30.0793 19.9988C30.0793 25.5551 25.5567 30.0775 20 30.0775ZM20 12.6151C15.9286 12.6151 12.6184 15.9276 12.6184 19.9988C12.6184 24.0699 15.9311 27.3824 20 27.3824C24.0689 27.3824 27.3841 24.0699 27.3841 19.9988C27.3841 15.9276 24.0714 12.6151 20 12.6151ZM30.91 10.9316C29.8339 10.9316 28.9561 10.0539 28.9561 8.97787C28.9561 7.90182 29.8339 7.02411 30.91 7.02411C31.9861 7.02411 32.8639 7.90182 32.8639 8.97787C32.8639 10.0539 31.9886 10.9316 30.91 10.9316Z" fill="white"/>
</svg>