<svg xmlns:xlink="http://www.w3.org/1999/xlink" xmlns="http://www.w3.org/2000/svg" width="238" height="27" viewBox="0 0 238 27" fill="none">
<g clip-path="url(#clip0_1042_109)">
<path d="M63.802 16.8692C60.9463 16.8692 58.622 14.6356 58.622 11.8901C58.622 9.14468 60.9463 6.90198 63.802 6.90198C66.6578 6.90198 68.9726 9.14013 68.9726 11.8901C68.9726 14.6401 66.6531 16.8692 63.802 16.8692ZM63.802 8.16794C61.6712 8.16794 59.9367 9.83823 59.9367 11.8901C59.9367 13.942 61.6712 15.6032 63.802 15.6032C65.9328 15.6032 67.6579 13.9375 67.6579 11.8901C67.6579 9.84277 65.9281 8.16794 63.802 8.16794Z" fill="white"/>
<path d="M70.531 23.2202C70.5058 22.6524 70.3895 22.1299 70.1882 21.6635C69.5859 20.181 68.2508 19.2209 66.7867 19.2209H60.8063C59.3438 19.2209 58.0087 20.181 57.4049 21.665C57.2067 22.1239 57.0919 22.6418 57.0652 23.202C56.6862 22.9628 56.3261 22.6917 55.9896 22.4055C56.1059 21.924 56.2789 21.3637 56.54 20.8306C57.3813 19.0604 59.0167 17.9625 60.8079 17.9625H66.7899C68.5684 17.9625 70.2039 19.0574 71.0578 20.8215C71.322 21.3743 71.4918 21.9406 71.5626 22.507C71.2512 22.7175 70.8958 22.9794 70.5341 23.2217L70.531 23.2202Z" fill="white"/>
<path d="M63.7973 25.2524C57.2916 25.2524 52 20.1568 52 13.8921C52 7.62735 57.2916 2.5332 63.7973 2.5332C70.303 2.5332 75.5931 7.62887 75.5931 13.8921C75.5931 20.1553 70.3014 25.2524 63.7973 25.2524ZM63.7973 3.9082C58.0795 3.9082 53.4279 8.38754 53.4279 13.8921C53.4279 19.3966 58.0795 23.8774 63.7973 23.8774C69.5151 23.8774 74.1652 19.3981 74.1652 13.8921C74.1652 8.38602 69.5135 3.9082 63.7973 3.9082Z" fill="white"/>
</g>
<g clip-path="url(#clip1_1042_109)">
<path d="M114.896 1.26547L103 12.5743V26.9985H113.518V18.9236C113.518 17.4593 114.732 16.1849 116.214 16.194C117.757 16.2046 118.949 17.3879 118.949 18.8355V26.9969H129.216V12.5743L117.309 1.26547C116.636 0.624457 115.57 0.625976 114.895 1.26547H114.896ZM127.713 25.5159H120.451V18.834C120.451 16.557 118.583 14.713 116.279 14.713H116.194C113.887 14.713 112.017 16.56 112.017 18.8385V25.5175H104.503V13.2077L114.896 3.3252C115.57 2.68419 116.637 2.68419 117.311 3.3252L127.713 13.2092V25.5175V25.5159Z" fill="white"/>
</g>
<g clip-path="url(#clip2_1042_109)">
<path d="M236.561 27C236.356 27 236.165 26.9203 236.019 26.7776L229.306 20.1276L229.159 20.2448C227.261 21.7611 224.978 22.5621 222.552 22.5621C216.733 22.5621 212 17.8748 212 12.1115C212 6.34813 216.733 1.6593 222.552 1.6593C228.37 1.6593 233.102 6.34813 233.102 12.1115C233.102 14.5987 232.195 17.0122 230.547 18.9118L230.42 19.0575L237.116 25.691C237.415 25.9871 237.415 26.468 237.116 26.7626C236.957 26.9203 236.766 26.9985 236.561 26.9985V27ZM222.552 3.19519C217.588 3.19519 213.551 7.19422 213.551 12.1115C213.551 17.0287 217.588 21.0278 222.552 21.0278C227.516 21.0278 231.551 17.0287 231.551 12.1115C231.551 7.19422 227.513 3.19519 222.552 3.19519Z" fill="white"/>
</g>
<g clip-path="url(#clip3_1042_109)">
<path d="M157 2.5332L166.599 12.6248L170.54 26.1278L184.088 2.5332H157ZM160.658 4.10711H178.915L167.478 10.6663L160.658 4.10711ZM168.7 11.9487L179.965 6.06557L170.69 21.8186L168.7 11.9487Z" fill="white"/>
</g>
<g clip-path="url(#clip4_1042_109)">
<path d="M24.4486 26.124L22.9904 19.7554C23.9361 17.9788 24.4486 15.9828 24.4486 13.9499C24.4486 7.17329 18.9667 1.6593 12.2296 1.6593C5.4925 1.6593 0 7.17329 0 13.9499C0 20.7266 5.4864 26.2498 12.2296 26.2498C14.0508 26.2498 15.8552 25.8232 17.4827 25.0408L23.5426 26.9662C24.0657 27.1319 24.5721 26.664 24.4486 26.1255V26.124ZM12.2296 24.7355C6.31615 24.7355 1.50544 19.8966 1.50544 13.9484C1.50544 8.00023 6.31615 3.17358 12.2296 3.17358C18.1431 3.17358 22.9447 8.0079 22.9447 13.9499C22.9447 15.8263 22.4611 17.6719 21.5475 19.2875C21.5048 19.3627 21.4301 19.6879 21.4636 19.8337L22.391 23.884C22.5145 24.4225 22.0097 24.892 21.485 24.7247L17.6703 23.5127C17.6703 23.5127 17.4903 23.525 17.1029 23.5587C15.6096 24.3289 13.9257 24.737 12.2296 24.737V24.7355Z" fill="white"/>
</g>
<defs>
<clipPath id="clip0_1042_109">
<rect width="23.5931" height="22.7192" fill="white" transform="translate(52 2.5332)"/>
</clipPath>
<clipPath id="clip1_1042_109">
<rect width="26.2145" height="26.2145" fill="white" transform="translate(103 0.785522)"/>
</clipPath>
<clipPath id="clip2_1042_109">
<rect width="25.3407" height="25.3407" fill="white" transform="translate(212 1.6593)"/>
</clipPath>
<clipPath id="clip3_1042_109">
<rect width="27.0883" height="23.5931" fill="white" transform="translate(157 2.5332)"/>
</clipPath>
<clipPath id="clip4_1042_109">
<rect width="24.4669" height="25.3407" fill="white" transform="translate(0 1.6593)"/>
</clipPath>
</defs>
</svg>